<?xml version="1.0" encoding="UTF-8"?>
<svg width="100px" height="100px" viewBox="0 0 100 100" version="1.1" xmlns="http://www.w3.org/2000/svg" xmlns:xlink="http://www.w3.org/1999/xlink">
    <!-- Generator: Sketch 52.6 (67491) - http://www.bohemiancoding.com/sketch -->
    <title>icon</title>
    <desc>Created with Sketch.</desc>
    <defs>
        <path d="M75.3902925,2.1507868 C69.7506276,0.849212994 60.480264,0 50,0 C39.519736,0 30.2493724,0.849212994 24.6097075,2.1507868 C13.3652755,4.51036036 4.51036036,13.3652755 2.1507868,24.6097075 C0.849212994,30.2493724 -1.10519661e-15,39.519736 0,50 C1.10519661e-15,60.480264 0.849212994,69.7506276 2.1507868,75.3902925 C4.51036036,86.6347245 13.3652755,95.4896396 24.6097075,97.8492132 C30.2493724,99.150787 39.519736,100 50,100 C60.480264,100 69.7506276,99.150787 75.3902925,97.8492132 C86.6347245,95.4896396 95.4896396,86.6347245 97.8492132,75.3902925 C99.150787,69.7506276 100,60.480264 100,50 C100,39.519736 99.150787,30.2493724 97.8492132,24.6097075 C95.4896396,13.3652755 86.6347245,4.51036036 75.3902925,2.1507868 Z" id="path-1"></path>
    </defs>
    <g id="Page-1" stroke="none" stroke-width="1" fill="none" fill-rule="evenodd">
        <g id="new-logo">
            <g id="icon">
                <g id="bg" fill="#00B388">
                    <path d="M75.3902925,2.1507868 C69.7506276,0.849212994 60.480264,0 50,0 C39.519736,0 30.2493724,0.849212994 24.6097075,2.1507868 C13.3652755,4.51036036 4.51036036,13.3652755 2.1507868,24.6097075 C0.849212994,30.2493724 -1.10519661e-15,39.519736 0,50 C1.10519661e-15,60.480264 0.849212994,69.7506276 2.1507868,75.3902925 C4.51036036,86.6347245 13.3652755,95.4896396 24.6097075,97.8492132 C30.2493724,99.150787 39.519736,100 50,100 C60.480264,100 69.7506276,99.150787 75.3902925,97.8492132 C86.6347245,95.4896396 95.4896396,86.6347245 97.8492132,75.3902925 C99.150787,69.7506276 100,60.480264 100,50 C100,39.519736 99.150787,30.2493724 97.8492132,24.6097075 C95.4896396,13.3652755 86.6347245,4.51036036 75.3902925,2.1507868 Z" id="path-1"></path>
                </g>
                <g id="Path-Clipped">
                    <g>
                        <mask id="mask-2" fill="white">
                            <use xlink:href="#path-1"></use>
                        </mask>
                        <g id="path-1"></g>
                        <path d="M62.014856,76.7625772 C61.0659681,74.5040434 59.0519632,72.8033493 56.6014761,72.28913 C55.1351632,71.9507208 52.7248686,71.7299254 50,71.7299254 C47.2751314,71.7299254 44.8648368,71.9507208 43.3985239,72.28913 C40.9655441,72.7996755 38.962832,74.4798029 38.0056447,76.714255 C38.0056447,76.714255 38.0056447,76.714255 38.0056447,76.714255 C37.6736158,77.4893411 36.8799124,77.9621422 36.0402368,77.8850287 C35.8306707,77.8658059 35.6497644,77.8486034 35.4975159,77.8334442 C31.5764129,77.4430243 28.4944405,76.8983677 26.7038143,76.2627419 C26.70091,76.2612211 26.6973583,76.2596717 26.693159,76.2580936 C25.4915528,75.8065316 24.6365263,74.6468205 24.6365263,73.2874073 C24.6365263,73.2536166 24.6370546,73.2199492 24.6381034,73.186413 C24.640858,73.1317002 24.6440702,73.0758254 24.6477372,73.0188011 C24.6488031,73.0060869 24.649944,72.9933941 24.6511594,72.980723 C24.6545725,72.945142 24.6567111,72.9107418 24.6575754,72.8775225 C24.9628038,68.7965425 27.4411878,59.2423242 31.1429403,48.3373129 C35.3748047,35.8706424 39.8004235,25.7778543 41.7960941,23.8092779 C42.1146089,23.4775943 42.4821651,23.199812 42.888437,22.9855899 C43.0470167,22.8950241 43.2479484,22.808416 43.4865033,22.7267079 C43.4927371,22.7245611 43.4989774,22.7224284 43.5052241,22.7203097 C44.8164282,22.276914 47.2329601,21.9799254 49.9975908,21.9799254 C52.7670399,21.9799254 55.1835718,22.276914 56.49238,22.7195212 C56.5010226,22.7224284 56.5072629,22.7245611 56.5134967,22.7267079 C56.7520516,22.808416 56.9529833,22.8950241 57.111563,22.9855899 C57.5178349,23.199812 57.8853911,23.4775943 58.2010008,23.8057058 C58.2020308,23.8067766 58.2029992,23.8079673 58.2039059,23.8092779 C60.1995765,25.7778543 64.6251953,35.8706424 68.8570597,48.3373129 C72.5588122,59.2423242 75.0371962,68.7965425 75.3424246,72.8775225 C75.3432889,72.9107418 75.3454275,72.945142 75.3488406,72.980723 C75.350056,72.9933941 75.3511969,73.0060869 75.3522628,73.0188011 C75.3559298,73.0758254 75.359142,73.1317002 75.3618966,73.186413 C75.3629454,73.2199492 75.3634737,73.2536166 75.3634737,73.2874073 C75.3634737,74.6468205 74.5084472,75.8065316 73.306841,76.2580936 C73.3026417,76.2596717 73.29909,76.2612211 73.2961857,76.2627419 C71.5071314,76.8978098 68.4289969,77.442068 64.5128082,77.8324157 C64.3421403,77.8494271 64.1356111,77.8689939 63.8932207,77.891116 L63.893222,77.8911309 C63.0880345,77.9646176 62.3280318,77.5079953 62.014856,76.7625772 C62.014856,76.7625772 62.014856,76.7625772 62.014856,76.7625772 Z" id="Path" fill="#FFFFFF" mask="url(#mask-2)"></path>
                    </g>
                </g>
            </g>
        </g>
    </g>
</svg>